<?xml version="1.0" encoding="UTF-8"?>
<svg width="24px" height="70px" viewBox="0 0 24 70" version="1.1" xmlns="http://www.w3.org/2000/svg" xmlns:xlink="http://www.w3.org/1999/xlink">
    <!-- Generator: Sketch 43.2 (39069) - http://www.bohemiancoding.com/sketch -->
    <title>noun_193828_cc</title>
    <desc>Created with Sketch.</desc>
    <defs></defs>
    <g id="Symbols" stroke="none" stroke-width="1" fill="none" fill-rule="evenodd">
        <g id="Beer-List-Item-(bottle)" transform="translate(-350.000000, -12.000000)" fill-rule="nonzero" fill="#000000">
            <g id="noun_193828_cc" transform="translate(350.000000, 12.000000)">
                <path d="M23.916,26.557 C23.725,24.062 22.538,21.764 20.57,20.175 L17.271,17.509 L17.271,3.33 C17.271,1.984 16.176,0.89 14.831,0.89 L9.168,0.89 C7.822,0.89 6.728,1.985 6.728,3.33 L6.728,17.51 L3.428,20.176 C1.463,21.765 0.275,24.063 0.084,26.558 L0.045,26.558 L0.045,63.52 C0.045,66.603 2.553,69.111 5.636,69.111 L18.365,69.111 C21.448,69.111 23.956,66.603 23.956,63.52 L23.956,26.557 L23.916,26.557 Z M21.455,29.057 L21.455,56.544 L2.545,56.544 L2.545,29.057 L21.455,29.057 Z M14.771,3.33 L14.771,6.507 L9.18,6.507 L9.168,3.389 L14.771,3.33 Z M4.999,22.12 L9.228,18.704 L9.19,9.008 L14.772,9.008 L14.772,18.704 L19,22.12 C20.377,23.232 21.233,24.821 21.416,26.558 L2.584,26.558 C2.768,24.822 3.624,23.232 4.999,22.12 Z M21.455,63.519 C21.455,65.223 20.068,66.61 18.364,66.61 L5.636,66.61 C3.932,66.61 2.545,65.223 2.545,63.519 L2.545,59.044 L21.455,59.044 L21.455,63.519 Z" id="Shape"></path>
            </g>
        </g>
    </g>
</svg>