<?xml version="1.0" encoding="UTF-8"?>
<svg width="41px" height="69px" viewBox="0 0 41 69" version="1.1" xmlns="http://www.w3.org/2000/svg" xmlns:xlink="http://www.w3.org/1999/xlink">
    <!-- Generator: Sketch 43.2 (39069) - http://www.bohemiancoding.com/sketch -->
    <title>noun_193834_cc</title>
    <desc>Created with Sketch.</desc>
    <defs></defs>
    <g id="Symbols" stroke="none" stroke-width="1" fill="none" fill-rule="evenodd">
        <g id="Beer-List-Item-(keg)" transform="translate(-342.000000, -12.000000)" fill-rule="nonzero" fill="#000000">
            <g id="noun_193834_cc" transform="translate(342.000000, 12.000000)">
                <g id="Group">
                    <path d="M25.14644,15.4314667 L15.8235672,15.4314667 C14.2359489,15.4314667 12.9434355,16.7302 12.9434355,18.3271667 C12.9434355,19.9233667 14.2351864,21.2221 15.8235672,21.2221 L25.14644,21.2221 C26.7332957,21.2221 28.0258091,19.9233667 28.0258091,18.3271667 C28.0258091,16.7302 26.7332957,15.4314667 25.14644,15.4314667 Z M25.14644,19.2425667 L15.8235672,19.2425667 C15.3210502,19.2425667 14.9123262,18.8324 14.9123262,18.3271667 C14.9123262,17.8219333 15.3210502,17.411 15.8235672,17.411 L25.14644,17.411 C25.648957,17.411 26.0569185,17.8219333 26.0569185,18.3271667 C26.0569185,18.8316333 25.6481944,19.2425667 25.14644,19.2425667 Z" id="Shape"></path>
                    <path d="M40.3081183,20.0928 L39.3236729,20.0928 C38.4719104,20.0928 37.7779946,19.3959 37.7779946,18.5387667 C37.7779946,17.6816333 38.4719104,16.9847333 39.3236729,16.9847333 L40.3081183,16.9847333 L40.3081183,9.70446667 L23.9073047,9.70446667 L23.9073047,3.8065 L21.4686864,3.8065 L21.4686864,1.97953333 L22.9228593,1.97953333 L22.9228593,0 L18.0463853,0 L18.0463853,1.97953333 L19.5005582,1.97953333 L19.5005582,3.8065 L17.06194,3.8065 L17.06194,9.7037 L0.661126344,9.7037 L0.661126344,16.9839667 L1.64557168,16.9839667 C2.49809677,16.9839667 3.19125,17.6816333 3.19125,18.538 C3.19125,19.3943667 2.49809677,20.0920333 1.64557168,20.0920333 L0.661126344,20.0920333 L0.661126344,65.8612667 L40.3081183,65.8612667 L40.3081183,20.0928 Z M2.62925448,28.3896667 L38.3399901,28.3896667 L38.3399901,38.7205 L2.62925448,38.7205 L2.62925448,28.3896667 Z M19.0300681,5.78603333 L21.938414,5.78603333 L21.938414,9.70446667 L19.0300681,9.70446667 L19.0300681,5.78603333 Z M2.62925448,21.9305 C4.08952778,21.5011667 5.15937814,20.1434 5.15937814,18.5387667 C5.15937814,16.9333667 4.08952778,15.5756 2.62925448,15.1462667 L2.62925448,11.6832333 L17.06194,11.6832333 L23.9080672,11.6832333 L38.3399901,11.6832333 L38.3399901,15.1462667 C36.8797168,15.5756 35.8098665,16.9333667 35.8098665,18.5387667 C35.8098665,20.1434 36.8797168,21.5019333 38.3399901,21.9305 L38.3399901,26.2292 L2.62925448,26.2292 L2.62925448,21.9305 Z M2.62925448,40.8809667 L38.3399901,40.8809667 L38.3399901,51.3927333 L2.62925448,51.3927333 L2.62925448,40.8809667 Z M38.3399901,63.8825 L2.62925448,63.8825 L2.62925448,53.3715 L38.3399901,53.3715 L38.3399901,63.8825 Z" id="Shape"></path>
                    <rect id="Rectangle-path" x="0.661126344" y="67.0204667" width="39.8559292" height="1.97953333"></rect>
                </g>
            </g>
        </g>
    </g>
</svg>